<svg xmlns="http://www.w3.org/2000/svg" viewBox="0 0 494.5 494.5"><g id="ae27d749-d023-471a-b111-56bcd1d94078" data-name="Livello 2"><g id="fe48811f-9d40-4ea4-8a18-07b0b63cffb4" data-name="Livello 1"><path d="M366.59,366.58a64,64,0,0,1-63.95-63.94V413.42A127.94,127.94,0,0,0,494.5,302.62H430.55A64,64,0,0,1,366.59,366.58Z"/><path d="M366.59,255.8a64,64,0,0,1-63.95-63.94V302.64A127.94,127.94,0,0,0,494.5,191.85H430.55A64,64,0,0,1,366.59,255.8Z"/><path d="M127.92,366.59a64,64,0,0,1,63.94-63.95H81.08A127.94,127.94,0,0,0,191.88,494.5h0V430.55h0A64,64,0,0,1,127.92,366.59Z"/><path d="M238.7,366.59a64,64,0,0,1,63.94-63.95H191.86A127.94,127.94,0,0,0,302.65,494.5h0V430.55h0A64,64,0,0,1,238.7,366.59Z"/><path d="M127.91,127.92a64,64,0,0,1,64,63.94V81.08A127.94,127.94,0,0,0,0,191.88H64A64,64,0,0,1,127.91,127.92Z"/><path d="M127.91,238.7a64,64,0,0,1,64,63.94V191.86A127.94,127.94,0,0,0,0,302.65H64A64,64,0,0,1,127.91,238.7Z"/><path d="M366.58,127.91a64,64,0,0,1-63.94,64H413.42A127.94,127.94,0,0,0,302.62,0h0V64h0A64,64,0,0,1,366.58,127.91Z"/><path d="M255.8,127.91a64,64,0,0,1-63.94,64H302.64A127.94,127.94,0,0,0,191.85,0h0V64h0A64,64,0,0,1,255.8,127.91Z"/></g></g></svg>
